<svg id="Capa_1" enable-background="new 0 0 512 512" height="512" viewBox="0 0 512 512" width="512" xmlns="http://www.w3.org/2000/svg" xmlns:xlink="http://www.w3.org/1999/xlink"><linearGradient id="SVGID_1_" gradientUnits="userSpaceOnUse" x1="256" x2="256" y1="512" y2="0"><stop offset="0" stop-color="#fd3a84"/><stop offset="1" stop-color="#ffa68d"/></linearGradient><linearGradient id="SVGID_2_" gradientUnits="userSpaceOnUse" x1="271" x2="271" y1="391.007" y2="121"><stop offset="0" stop-color="#ffc2cc"/><stop offset="1" stop-color="#fff2f4"/></linearGradient><g><path d="m256 512c-141.574 0-256-114.389-256-256 0-141.575 114.39-256 256-256 141.575 0 256 114.389 256 256 0 141.574-114.389 256-256 256z" fill="url(#SVGID_1_)"/><path d="m166 376v-240c0-5.532 3.045-10.615 7.922-13.225s10.796-2.324 15.398.744l180 120c4.173 2.782 6.68 7.465 6.68 12.481s-2.506 9.699-6.68 12.481l-180 120c-9.855 6.571-23.32-.408-23.32-12.481z" fill="url(#SVGID_2_)"/></g></svg>