<?xml version="1.0" standalone="no"?>
<!DOCTYPE svg PUBLIC "-//W3C//DTD SVG 20010904//EN"
 "http://www.w3.org/TR/2001/REC-SVG-20010904/DTD/svg10.dtd">
<svg version="1.0" xmlns="http://www.w3.org/2000/svg"
 width="254.000000pt" height="256.000000pt" viewBox="0 0 254.000000 256.000000"
 preserveAspectRatio="xMidYMid meet">

<g transform="translate(0.000000,256.000000) scale(0.100000,-0.100000)"
fill="#000000" stroke="none">
<path d="M820 2494 c0 -2 82 -201 181 -441 100 -241 199 -479 219 -529 57
-139 53 -136 82 -63 14 35 80 197 148 359 67 162 156 376 197 475 41 99 77
185 79 191 3 8 -19 5 -62 -7 -231 -64 -552 -64 -777 0 -37 11 -67 18 -67 15z"/>
<path d="M2500 1748 c0 -9 -6 -18 -12 -21 -285 -117 -415 -166 -426 -162 -7 2
-11 1 -8 -4 8 -12 -50 -35 -65 -25 -7 4 -10 3 -5 -4 8 -13 -29 -26 -45 -16 -7
4 -9 3 -5 -4 8 -13 -29 -26 -45 -16 -7 4 -9 3 -5 -4 8 -13 -29 -26 -45 -16 -7
4 -9 3 -6 -3 4 -6 0 -14 -9 -17 -24 -9 -31 -7 -14 4 8 5 11 10 5 10 -13 0 -43
-20 -30 -20 13 0 -17 -20 -30 -20 -5 0 -3 5 5 10 21 13 6 12 -24 -1 -14 -7
-23 -17 -19 -22 4 -6 0 -8 -10 -4 -22 8 -49 -2 -40 -16 4 -6 0 -8 -10 -4 -10
3 -17 3 -17 -2 0 -5 -6 -8 -13 -7 -15 1 -237 -86 -237 -94 0 -4 1001 -423
1115 -466 13 -5 13 -1 0 36 -41 117 -60 251 -59 435 0 180 10 259 51 403 8 30
12 56 9 59 -3 4 -6 -1 -6 -9z"/>
<path d="M43 1716 c15 -38 48 -222 57 -315 14 -149 -5 -339 -55 -521 -8 -30
-13 -55 -11 -57 1 -2 115 44 252 101 347 144 640 265 767 316 59 24 107 46
107 50 0 8 -482 204 -502 204 -9 0 -14 5 -11 10 4 5 -1 7 -10 3 -10 -4 -17 -2
-17 4 0 6 -7 8 -16 5 -10 -4 -13 -2 -8 6 5 8 2 9 -9 5 -10 -3 -17 -2 -17 3 0
5 -7 6 -17 3 -11 -4 -14 -3 -9 5 4 7 1 13 -6 13 -7 1 -20 3 -28 4 -8 1 -21 3
-28 4 -7 0 -11 5 -8 10 6 10 -24 25 -32 16 -3 -3 1 -5 8 -5 7 0 11 -2 8 -5 -9
-10 -38 7 -31 18 3 6 1 7 -6 3 -16 -10 -53 3 -45 16 4 7 2 8 -5 4 -6 -4 -21
-4 -32 -1 -17 6 -19 9 -8 17 11 7 9 8 -5 4 -25 -8 -58 3 -50 16 5 7 2 8 -5 4
-16 -10 -73 13 -64 27 3 6 1 7 -6 3 -15 -9 -53 3 -46 15 3 5 0 6 -8 4 -7 -3
-30 1 -50 10 -45 19 -61 19 -54 1z"/>
<path d="M1258 1150 c-8 -19 -113 -272 -233 -563 -120 -290 -216 -529 -214
-531 2 -3 36 4 74 15 241 67 566 65 800 -5 27 -9 51 -14 53 -12 3 4 -440 1081
-458 1116 -6 10 -12 5 -22 -20z"/>
<path d="M280 616 c0 -2 8 -10 18 -17 15 -13 16 -12 3 4 -13 16 -21 21 -21 13z"/>
<path d="M2229 593 c-13 -16 -12 -17 4 -4 16 13 21 21 13 21 -2 0 -10 -8 -17
-17z"/>
<path d="M2169 543 l-24 -28 30 25 c17 14 32 26 34 28 2 1 0 2 -6 2 -5 0 -20
-12 -34 -27z"/>
<path d="M445 470 c38 -38 72 -70 74 -70 3 0 -26 32 -64 70 -38 39 -72 70 -74
70 -3 0 26 -31 64 -70z"/>
<path d="M2079 463 l-34 -38 38 34 c20 19 37 36 37 38 0 8 -8 0 -41 -34z"/>
<path d="M2000 373 c-23 -27 -69 -88 -102 -138 -33 -50 -65 -93 -72 -97 -6 -4
-7 -8 -2 -8 5 0 3 -7 -4 -15 -7 -9 -8 -15 -2 -15 5 0 25 26 42 58 39 68 88
138 148 210 54 65 48 69 -8 5z"/>
<path d="M540 365 c13 -14 26 -25 28 -25 3 0 -5 11 -18 25 -13 14 -26 25 -28
25 -3 0 5 -11 18 -25z"/>
<path d="M826 345 c-9 -26 -7 -32 5 -12 6 10 9 21 6 23 -2 3 -7 -2 -11 -11z"/>
<path d="M634 236 c84 -128 91 -139 60 -81 -32 59 -100 162 -112 169 -5 3 19
-37 52 -88z"/>
<path d="M775 220 c-21 -49 -40 -88 -44 -86 -3 2 -6 -9 -7 -25 -1 -16 0 -28 1
-27 8 9 95 222 92 225 -2 2 -21 -37 -42 -87z"/>
<path d="M1740 275 c0 -5 5 -17 10 -25 5 -8 10 -10 10 -5 0 6 -5 17 -10 25 -5
8 -10 11 -10 5z"/>
<path d="M1770 205 c0 -5 5 -17 10 -25 5 -8 10 -10 10 -5 0 6 -5 17 -10 25 -5
8 -10 11 -10 5z"/>
</g>
</svg>
