<?xml version="1.0" encoding="utf-8"?>
<svg version="1.1" id="Layer_1" xmlns="http://www.w3.org/2000/svg" xmlns:xlink="http://www.w3.org/1999/xlink" x="0px" y="0px"
	 viewBox="0 0 2331 1058" enable-background="new 0 0 2331 1058" xml:space="preserve">
<g>
	<linearGradient id="SVGID_1_" gradientUnits="userSpaceOnUse" x1="1165.5" y1="-9.094947e-13" x2="1165.5" y2="1058">
		<stop  offset="0" style="stop-color:#1AA6E6"/>
		<stop  offset="1" style="stop-color:#81DAF5"/>
	</linearGradient>
	<rect fill="url(#SVGID_1_)" stroke="#86DDF6" stroke-width="0.5" width="2331" height="1058"/>
	<path fill="#FD8524" stroke="#FD8524" stroke-width="0.5" d="M1319.46,192.15c18.46-4.75,37.42-7.38,56.43-8.62
		c46.52-2.84,93.37,2.34,138.7,13.01c22.92,5.68,45.7,12.57,66.98,22.94c6.97,3.75,14.13,7.55,19.66,13.35
		c3.73,3.87,4.43,9.5,5.26,14.56c-0.08,3.3,1.42,6.54,0.27,9.78c-0.25,7.51-2.97,14.94-7.63,20.84c-1.57,2-3.44,3.72-5.23,5.5
		c19.6,13.49,36.64,30.52,51.02,49.42c10.65,14.05,19.97,29.12,27.78,44.93c3.99,7.91,7.52,16.06,10.61,24.37
		c-0.17,4.36,1.69,8.45,1.91,12.78c0.33,6.35,0.78,12.9-1.12,19.07c-0.81,2.86-2.27,5.48-3.22,8.3c4.85-3.93,6.16-10.47,7.19-16.3
		c0.5-6.83-0.01-13.7,0.16-20.55c7.42,4.53,14.47,9.66,21.27,15.08c20.58,16.51,38.66,35.9,55.28,56.33
		c11.16,13.75,21.66,28.02,31.65,42.64c14.03,20.43,26.94,41.6,39.41,63.02c29.32,51.46,55.03,104.91,78.14,159.42
		c9.58,20.96,18.14,42.82,20.46,65.93c1.33,12.56,0.91,25.39-1.94,37.71c-3.11,6.79-11.29,8.68-17.78,10.79
		c-19.82,4.81-40.33,5.56-60.62,6.24c-53.43,0.85-106.83-2.63-160.01-7.56c-27.32-2.61-54.6-5.7-81.77-9.59
		c-12.05-1.87-24.19-3.35-36.07-6.12c0.63-5.62-0.13-11.28-0.48-16.89c-0.9-25.88-0.56-51.8,1.63-77.61
		c2.15-24.16,5.72-48.37,13.12-71.54c4.91-15.02,11.55-29.86,22.15-41.78c6.95-7.89,16.09-13.93,26.31-16.62
		c30.64-8.77,60.33-24.2,81.34-48.66c4.67-5.8,9.46-11.77,12.16-18.78c-13.1,10.23-28.24,17.46-43.77,23.22
		c-12.96,4.9-26.27,8.88-39.68,12.32c-9.25,2.21-18.45,5.12-28.04,5.16c-27.1,0.52-53.67-6.26-79.55-13.63
		c-0.59-5.35-1.8-10.66-2.9-15.92c-1.63-9.41-3.82-18.75-6.01-28.06c2.72-4.4,3.28-9.66,4.36-14.61
		c3.74-23.45-1.1-47.66-10.82-69.12c-14.09-31.32-37.8-57.2-63.76-79.19c-30.13-24.72-61.93-47.99-97.33-64.63
		c-17.89-7.93-37.1-15.32-57.02-13.8c-2.2-0.12-4.33-0.82-5.93-2.36c-14.55-12.76-29.18-25.42-43.77-38.14
		c-4.53-3.62-8.56-7.84-13.28-11.22c1.39-2.6,2.81-5.2,4.13-7.85c1.25-2.29,2.43-4.63,3.76-6.88c7.42-6.15,16.06-10.61,24.38-15.38
		c4.22,1,8.57,0.15,12.85,0.18c52.73-1.54,105.55-1.75,158.21,1.83c15.07,1.12,30.13,2.56,45.07,4.93
		c3.59,0.55,7.16,1.46,10.84,1.37c-19.46-4.92-39.4-7.72-59.32-10.03c-48.56-5.48-97.48-6.58-146.29-7.14
		C1305.41,196,1312.43,194.02,1319.46,192.15 M1540.19,276.95c0.52,4.58,2.39,8.88,3.42,13.36c6.83,23.69,13.85,47.39,18.13,71.71
		c3.96,22.67,5.44,46.15,0.52,68.8c1.63,0.04,1.75-1.83,2.45-2.92c4.05-8.51,7.15-17.5,8.62-26.83c4.14-24.92-0.14-50.5-8.26-74.2
		C1558.85,309.33,1550.95,292.17,1540.19,276.95z"/>
	<path fill="#DD5900" stroke="#DD5900" stroke-width="0.5" d="M1277.25,207.45c7.1-2.98,14.02-6.48,21.36-8.86
		c48.81,0.56,97.73,1.66,146.29,7.14c19.92,2.31,39.86,5.11,59.32,10.03c-3.68,0.09-7.25-0.82-10.84-1.37
		c-14.94-2.37-30-3.81-45.07-4.93c-52.66-3.58-105.48-3.37-158.21-1.83C1285.82,207.6,1281.47,208.45,1277.25,207.45z"/>
	<path fill="#F4731C" stroke="#F4731C" stroke-width="0.5" d="M1226.99,272.18c5.81-11.63,11.99-23.08,17.99-34.62
		c4.72,3.38,8.75,7.6,13.28,11.22c14.59,12.72,29.22,25.38,43.77,38.14c1.6,1.54,3.73,2.24,5.93,2.36
		c-0.46,0.27-1.39,0.81-1.85,1.07c2.94,3.88,7.25,6.43,10.69,9.85c31.7,27.63,63.44,55.22,95.17,82.83
		c2.22,1.99,5.05,3.64,5.97,6.68c-1.95-1.02-3.47-3.32-5.9-2.98c-16.44-0.34-31.25,8.62-43.43,18.87
		c-13.25,11.82-25.07,25.32-34.53,40.37c-3.33,4.98-6.62,9.98-9.98,14.94c-11.68,16.95-20.94,35.42-30.12,53.8
		c-6.9,13.78-13.12,27.89-19.18,42.05c-3.92,9.32-7.7,18.7-11.24,28.17c-2.34,15.54-1.7,31.88,4.53,46.5
		c3.12,6.94,7.16,13.52,12.32,19.16c12.31,13.42,25.02,26.75,34.46,42.45c4.21,7.35,7.76,16.02,5.79,24.61
		c-1.05,5.46-2.51,10.86-2.8,16.44c-0.16,9.16,4.05,17.73,3.86,26.9c0.83,13.83-2.44,27.7-8.58,40.06
		c-2.14,3.97-3.82,8.51-7.59,11.27c-12.78-5.4-26.83-6.8-40.52-8.16c-10.8-0.45-21.63-1.67-32.44-0.69
		c-5.22,0.47-10.47,0.28-15.68,0.74c-16.31,1.94-33.16-1.73-47.5-9.66c-8.11-4.96-15.75-10.8-22.15-17.85
		c-4.59-4.68-8.11-10.25-12.36-15.2c1.9-1.45,3.88-2.82,5.63-4.47c0.2-4.65-0.22-9.31-0.72-13.93c-0.6-7.7-0.12-15.45-0.89-23.14
		c-0.31-3.32-0.03-6.65,0.22-9.95c0.22-10.83-0.14-21.7,0.83-32.49c0.8-4.44,0.2-9.04,1.35-13.42c1.1-12.45,3.45-24.76,7.4-36.65
		c2.6-7.34,6.06-14.55,11.44-20.29c5.78-6.03,10.78-12.92,13.98-20.68c0.4-1.56,1.18-3,1.4-4.61c11.49,0.11,22.92,1.61,34.41,2.16
		c6.04,0.21,12.09,1.54,18.13,0.45c-3.36-0.27-6.73-0.23-10.07-0.61c2.44-6.91,5.8-13.46,8.57-20.25
		c16.07-37.94,29.87-76.88,40.22-116.78c5.69-22.94,10.4-46.21,12.26-69.81c1.79-20.55,0.5-41.8-6.99-61.19
		C1264.36,295.71,1248.01,278.3,1226.99,272.18z"/>
	<path fill="#FD8524" stroke="#FD8524" stroke-width="0.5" d="M1214.97,296.71c4-8.18,8.11-16.31,12.02-24.53
		c21.02,6.12,37.37,23.53,45.08,43.66c7.49,19.39,8.78,40.64,6.99,61.19c-1.86,23.6-6.57,46.87-12.26,69.81
		c-10.35,39.9-24.15,78.84-40.22,116.78c-2.77,6.79-6.13,13.34-8.57,20.25c3.34,0.38,6.71,0.34,10.07,0.61
		c-6.04,1.09-12.09-0.24-18.13-0.45c-11.49-0.55-22.92-2.05-34.41-2.16c1.61-5.83,1.2-12.11-0.08-17.95
		c-1.25-5.82-3.2-12.02-1.2-17.91c1-13.81-0.62-27.57-1.84-41.27c-0.31-3.61-1.12-7.13-1.12-10.78c-1.26-2.95-0.14-6.43-1.47-9.26
		c-0.65-9.98-2.62-19.75-3.49-29.7c-1.49-8.31-2.57-16.78-1.78-25.28c3.06-20.54,10.35-40.26,17.82-59.63
		C1192.17,345.17,1203.44,320.86,1214.97,296.71z"/>
	<path fill="#DD5900" stroke="#DD5900" stroke-width="0.5" d="M1540.19,276.95c10.76,15.22,18.66,32.38,24.88,49.92
		c8.12,23.7,12.4,49.28,8.26,74.2c-1.47,9.33-4.57,18.32-8.62,26.83c-0.7,1.09-0.82,2.96-2.45,2.92c4.92-22.65,3.44-46.13-0.52-68.8
		c-4.28-24.32-11.3-48.02-18.13-71.71C1542.58,285.83,1540.71,281.53,1540.19,276.95z"/>
	<path fill="#DD5900" stroke="#DD5900" stroke-width="0.5" d="M1307.96,289.28c19.92-1.52,39.13,5.87,57.02,13.8
		c35.4,16.64,67.2,39.91,97.33,64.63c25.96,21.99,49.67,47.87,63.76,79.19c9.72,21.46,14.56,45.67,10.82,69.12
		c-1.08,4.95-1.64,10.21-4.36,14.61c-1.32-5.62-2.84-11.19-4.51-16.72c-2.65-8.78-5.71-17.58-10.65-25.36
		c-4.51-7.3-12.02-11.9-17.49-18.37c-2.32-2.49-4.29-5.26-6.15-8.07c-8.95-14.85-21.48-27.05-34.25-38.58
		c-13.26-11.96-27.26-23.09-41.54-33.82c-0.92-3.04-3.75-4.69-5.97-6.68c-31.73-27.61-63.47-55.2-95.17-82.83
		c-3.44-3.42-7.75-5.97-10.69-9.85C1306.57,290.09,1307.5,289.55,1307.96,289.28z"/>
	<path fill="#DC5800" stroke="#DC5800" stroke-width="0.5" d="M1683.31,402.23c1.73,0.93,3.29,2.17,4.92,3.3
		c-0.17,6.85,0.34,13.72-0.16,20.55c-1.03,5.83-2.34,12.37-7.19,16.3c0.95-2.82,2.41-5.44,3.22-8.3c1.9-6.17,1.45-12.72,1.12-19.07
		C1685,410.68,1683.14,406.59,1683.31,402.23z"/>
	<path fill="#F7944B" stroke="#F7944B" stroke-width="0.5" d="M2027.34,487.39c0.21-0.09,0.64-0.25,0.86-0.33
		c9.63,1.2,19.21,3,28.83,4.42c42.87,6.86,85.78,13.49,128.62,20.48c-6.42,1.65-13.08,1.97-19.6,3.02
		c-19.91,2.76-39.88,5.1-59.74,8.12c-6.1,31.69-11.76,63.47-17.85,95.16c-2.23-6.73-3.27-13.78-5-20.64
		c-5.15-22.23-9.98-44.54-15.31-66.72c-11.51-13.4-24-26.03-35.8-39.21C2030.77,490.15,2029.5,488.08,2027.34,487.39z"/>
	<path fill="#B26938" stroke="#B26938" stroke-width="0.5" d="M1964.39,520.75c21.1-10.9,42.16-21.88,62.95-33.36
		c2.16,0.69,3.43,2.76,5.01,4.3c11.8,13.18,24.29,25.81,35.8,39.21c5.33,22.18,10.16,44.49,15.31,66.72
		c1.73,6.86,2.77,13.91,5,20.64c6.09-31.69,11.75-63.47,17.85-95.16c19.86-3.02,39.83-5.36,59.74-8.12
		c6.52-1.05,13.18-1.37,19.6-3.02c49.22,0.06,98.55-7.47,145.35-22.82V1058h-112.66c-38.32-42.18-83.17-78.44-132.68-106.69
		c-44.48-25.31-92.51-44.82-142.62-55.59c-0.74-7.01-2.89-13.92-6.97-19.72c-5.32-8.24-13.34-14.14-21.35-19.55
		c6.49-2.11,14.67-4,17.78-10.79c2.85-12.32,3.27-25.15,1.94-37.71c-2.32-23.11-10.88-44.97-20.46-65.93
		c-23.11-54.51-48.82-107.96-78.14-159.42C1879.35,563.4,1922.06,542.42,1964.39,520.75z"/>
	<path fill="#DD5900" stroke="#DD5900" stroke-width="0.5" d="M1688.71,570.76c15.53-5.76,30.67-12.99,43.77-23.22
		c-2.7,7.01-7.49,12.98-12.16,18.78c-21.01,24.46-50.7,39.89-81.34,48.66c-10.22,2.69-19.36,8.73-26.31,16.62
		c-10.6,11.92-17.24,26.76-22.15,41.78c-7.4,23.17-10.97,47.38-13.12,71.54c-2.19,25.81-2.53,51.73-1.63,77.61
		c0.35,5.61,1.11,11.27,0.48,16.89c-8.36-1.05-16.96-1.46-24.83-4.79c-4.47-1.57-8.07-4.78-12.37-6.68
		c-10.64-8.77-15.47-23.74-13.26-37.22c16.31-52.13,23.67-107.04,21.52-161.63c-0.65-18.26-2.5-36.51-5.87-54.49
		c25.88,7.37,52.45,14.15,79.55,13.63c9.59-0.04,18.79-2.95,28.04-5.16C1662.44,579.64,1675.75,575.66,1688.71,570.76z"/>
	<path fill="#A1CEE5" stroke="#A1CEE5" stroke-width="0.5" d="M350.2,578.19c1.95-1.43,3.78-3.04,5.91-4.19
		c5.97,0.86,11.51,3.58,17.41,4.85c24.1,8.18,48.63,15.06,72.8,23.05c-5.16,0.34-10.25-0.71-15.36-1.14
		c-17.31-1.7-34.57-3.84-51.89-5.39c-0.75,4.13-0.13,8.34-0.44,12.5c-8.43-0.29-16.21-4.63-24.56-5.66
		c-4.23,1.36-7.95,3.92-11.87,5.97c-10.03,5.13-19.76,10.9-29.98,15.66c-0.27-5.33-0.03-10.67-0.35-16
		C324.5,597.78,337.58,588.27,350.2,578.19z"/>
	<path fill="#B26938" stroke="#B26938" stroke-width="0.5" d="M1310.85,612.87c18.46-8.48,36.83-17.13,54.95-26.32
		c18.28,30.11,37.51,59.68,55.8,89.78c0.47,22.53-0.22,45.12,0.33,67.64c9.31,13.89,19.45,27.27,29.08,40.97
		c12.99,17.99,25.71,36.19,38.84,54.07c-3.75-9-8.66-17.46-12.66-26.34c-10.39-20.88-20.63-41.83-31-62.72
		c-1.2-2.84-3.44-5.61-2.6-8.86c3.21-24.45,5.71-49.01,9.07-73.44c18.72-15.05,38.03-29.41,56.92-44.28
		c12.53,2.23,25.15,3.85,37.73,5.73c2.15,54.59-5.21,109.5-21.52,161.63c-2.21,13.48,2.62,28.45,13.26,37.22
		c-10.74,11.93-17.89,26.7-22.37,42.03c-35.91,2.91-71.83,5.72-107.75,8.44c-5.11-0.88-9.91-3.07-14.89-4.46
		c-26.62-8.66-53.39-16.89-79.91-25.82c-4.15-5.73-8.83-11.2-11.44-17.86c-2.46-5.87-2.51-13.66,2.86-17.96
		c3.77-2.76,5.45-7.3,7.59-11.27c6.14-12.36,9.41-26.23,8.58-40.06c0.19-9.17-4.02-17.74-3.86-26.9c0.29-5.58,1.75-10.98,2.8-16.44
		c1.97-8.59-1.58-17.26-5.79-24.61c-9.44-15.7-22.15-29.03-34.46-42.45c-5.16-5.64-9.2-12.22-12.32-19.16
		C1282.55,625.77,1296.66,619.19,1310.85,612.87z"/>
	<path fill="#F7944B" stroke="#F7944B" stroke-width="0.5" d="M1365.8,586.55c47.96,12.11,95.84,24.62,143.78,36.82
		c-18.89,14.87-38.2,29.23-56.92,44.28c-3.36,24.43-5.86,48.99-9.07,73.44c-0.84,3.25,1.4,6.02,2.6,8.86
		c10.37,20.89,20.61,41.84,31,62.72c4,8.88,8.91,17.34,12.66,26.34c-13.13-17.88-25.85-36.08-38.84-54.07
		c-9.63-13.7-19.77-27.08-29.08-40.97c-0.55-22.52,0.14-45.11-0.33-67.64C1403.31,646.23,1384.08,616.66,1365.8,586.55z"/>
	<path fill="#89C2DF" stroke="#89C2DF" stroke-width="0.5" d="M379.07,595.37c17.32,1.55,34.58,3.69,51.89,5.39
		c5.11,0.43,10.2,1.48,15.36,1.14c21.95,6.46,43.69,13.64,65.6,20.28c19.08,6.15,38.36,11.68,57.35,18.11
		c-66.01,31.01-132.07,61.91-198.11,92.87c-1.27,0.58-2.26,1.59-3.31,2.48c-72.63,13.68-145.28,27.24-217.91,40.92
		c-15.78-2.11-31.48-5.22-47.22-7.74c10.3-8.82,21.43-16.6,32.05-25.02c38.45-29.57,77.01-58.97,115.35-88.65
		c13.94-10.65,27.88-21.29,41.64-32.16c6.89-4.8,13.29-10.25,20.11-15.15c0.32,5.33,0.08,10.67,0.35,16
		c10.22-4.76,19.95-10.53,29.98-15.66c3.92-2.05,7.64-4.61,11.87-5.97c8.35,1.03,16.13,5.37,24.56,5.66
		C378.94,603.71,378.32,599.5,379.07,595.37z"/>
	<path fill="#92C9E2" stroke="#92C9E2" stroke-width="0.5" d="M614.35,619.27c1.44-0.84,3.11-0.88,4.66-0.28
		c38.63,12.42,77.24,24.94,115.93,37.18c6.53,2.35,13.38,3.88,19.65,6.93c-128.91,24.21-257.82,48.4-386.74,72.54
		c1.05-0.89,2.04-1.9,3.31-2.48c66.04-30.96,132.1-61.86,198.11-92.87C584.33,633.34,599.31,626.25,614.35,619.27z"/>
	<path fill="#A1CEE5" stroke="#A1CEE5" stroke-width="0.5" d="M987.26,635.26c4.65-2.22,8.84-5.59,13.83-7
		c11.14,2.43,22.13,5.7,33.24,8.33c20.63,5.48,41.42,10.36,61.98,16.1c-19.47-1.15-38.88-3.34-58.32-4.85
		c-1.25-0.17-2.44-0.06-3.57,0.35c0.37,3.61,1.7,7.1,1.7,10.77c-9.79-0.73-19.41-2.88-29.15-4.02c-3.75-0.32-7.5-1.68-11.25-1.23
		c-5.89,3.21-10.75,8.03-16.6,11.31c-0.5-3.87-0.15-7.77-0.43-11.65c-7.72-0.69-15.49,0.35-23.19-0.6
		C965.82,646.47,976.72,641.19,987.26,635.26z"/>
	<path fill="#A8D4E8" stroke="#A8D4E8" stroke-width="0.5" d="M85.38,636.33c2.29-1.48,4.72-3.52,7.64-2.71
		c16.19,2.49,32.56,3.96,48.63,7.08c3.48,4.33,8.34,7.18,12.14,11.18c-14.46,0.52-28.99-0.43-43.43,0.45
		c-0.42,5.91,0.38,11.87-0.38,17.77c-5.55-1.49-9.82-5.72-15.19-7.59c-6.89,1.75-12.81,6.17-19.67,8.1
		c-1.76-2.62-2.44-5.82-4.31-8.36c-8.06-0.82-16.19,0.25-24.27-0.49C59.29,652.99,72.44,644.82,85.38,636.33z"/>
	<path fill="#92C9E2" stroke="#92C9E2" stroke-width="0.5" d="M141.65,640.7c14.99,1.25,29.85,3.83,44.75,5.82
		c21.25,2.78,42.46,5.94,63.72,8.63c-38.34,29.68-76.9,59.08-115.35,88.65c-10.62,8.42-21.75,16.2-32.05,25.02
		C68.47,763.07,34.24,757.29,0,751.5v-59.46c15.37-10.31,30.9-20.39,46.54-30.28c8.08,0.74,16.21-0.33,24.27,0.49
		c1.87,2.54,2.55,5.74,4.31,8.36c6.86-1.93,12.78-6.35,19.67-8.1c5.37,1.87,9.64,6.1,15.19,7.59c0.76-5.9-0.04-11.86,0.38-17.77
		c14.44-0.88,28.97,0.07,43.43-0.45C149.99,647.88,145.13,645.03,141.65,640.7z"/>
	<path fill="#B26938" stroke="#B26938" stroke-width="0.5" d="M754.59,663.1c38.94-7.22,77.85-14.66,116.8-21.84
		c3.81,8.71,8.73,16.87,12.93,25.39c16.09,30.92,32.18,61.84,48.29,92.75c7.16,14.65,16.72,27.93,25.13,41.87
		c1.61,2.31,2.61,5.14,4.81,7c0.12-16.1-0.01-32.2,0.07-48.29c0.21-4.72-2.07-9.03-3.17-13.51c-6.8-22.51-13.55-45.03-20.36-67.54
		c-1.27-4.22-2.66-8.42-3.58-12.73c24.36,8.26,49.02,15.81,74.25,20.97c21.36,4.22,43.4,7.47,65.14,4.25
		c22.01-2.92,43.73-7.83,65.07-13.9c-0.97,10.79-0.61,21.66-0.83,32.49c-0.25,3.3-0.53,6.63-0.22,9.95
		c0.77,7.69,0.29,15.44,0.89,23.14c0.5,4.62,0.92,9.28,0.72,13.93c-1.75,1.65-3.73,3.02-5.63,4.47
		c-25.24,18.52-50.35,37.2-75.55,55.78c-6.05,4.7-12.58,8.81-18.27,13.98c-14.02,0.49-28.08,0.22-42.11-0.01
		c-30.33,0.02-60.66,0-90.99,0.01c-27.32-0.43-54.66-0.21-81.98-0.26c-25.02,0.19-50.02-0.4-75.03-0.25
		c-30.67-0.01-61.33,0.1-91.99-0.26c-48.99,0.17-97.98-0.25-146.97-0.23c-21-0.12-42.01,0.26-63.01-0.27
		c-27.8,0.08-55.61-0.11-83.42,0.09c-34.89-0.13-69.76-1.58-104.64-2.16c-69.29-1.61-138.6-2.35-207.91-2.44
		C35.36,825.97,17.67,825.62,0,826v-74.5c34.24,5.79,68.47,11.57,102.72,17.32c15.74,2.52,31.44,5.63,47.22,7.74
		c72.63-13.68,145.28-27.24,217.91-40.92C496.77,711.5,625.68,687.31,754.59,663.1z"/>
	<path fill="#F7944B" stroke="#F7944B" stroke-width="0.5" d="M871.39,641.26c20.46,7.88,40.86,15.88,61.3,23.79
		c0.92,0.36,1.88,0.76,2.82,1.15c0.92,4.31,2.31,8.51,3.58,12.73c6.81,22.51,13.56,45.03,20.36,67.54c1.1,4.48,3.38,8.79,3.17,13.51
		c-0.08,16.09,0.05,32.19-0.07,48.29c-2.2-1.86-3.2-4.69-4.81-7c-8.41-13.94-17.97-27.22-25.13-41.87
		c-16.11-30.91-32.2-61.83-48.29-92.75C880.12,658.13,875.2,649.97,871.39,641.26z"/>
	<path fill="#89C2DF" stroke="#89C2DF" stroke-width="0.5" d="M1034.42,648.19c1.13-0.41,2.32-0.52,3.57-0.35
		c19.44,1.51,38.85,3.7,58.32,4.85c15.07,3.52,29.96,7.79,45.01,11.41c-1.15,4.38-0.55,8.98-1.35,13.42
		c-21.34,6.07-43.06,10.98-65.07,13.9c-21.74,3.22-43.78-0.03-65.14-4.25c-25.23-5.16-49.89-12.71-74.25-20.97
		c-0.94-0.39-1.9-0.79-2.82-1.15c7.51-4.25,15.06-8.47,22.81-12.28c7.7,0.95,15.47-0.09,23.19,0.6c0.28,3.88-0.07,7.78,0.43,11.65
		c5.85-3.28,10.71-8.1,16.6-11.31c3.75-0.45,7.5,0.91,11.25,1.23c9.74,1.14,19.36,3.29,29.15,4.02
		C1036.12,655.29,1034.79,651.8,1034.42,648.19z"/>
	<path fill="#E95F16" stroke="#E95F16" stroke-width="0.5" d="M1059.35,817.28c25.2-18.58,50.31-37.26,75.55-55.78
		c4.25,4.95,7.77,10.52,12.36,15.2c6.4,7.05,14.04,12.89,22.15,17.85c14.34,7.93,31.19,11.6,47.5,9.66
		c5.21-0.46,10.46-0.27,15.68-0.74c10.81-0.98,21.64,0.24,32.44,0.69c13.69,1.36,27.74,2.76,40.52,8.16
		c-5.37,4.3-5.32,12.09-2.86,17.96c2.61,6.66,7.29,12.13,11.44,17.86c-8.86-2.16-17.27-5.92-26.15-7.88
		c-74.35-2.73-148.7-5.63-223.05-8.37c-7.95-0.49-15.92,0.14-23.85-0.63C1046.77,826.09,1053.3,821.98,1059.35,817.28z"/>
	<path fill="#F78626" stroke="#F78626" stroke-width="0.5" d="M0,826c17.67-0.38,35.36-0.03,53.03-0.52
		c69.31,0.09,138.62,0.83,207.91,2.44c34.88,0.58,69.75,2.03,104.64,2.16c2.11,0.53,4.26,0.95,6.46,0.94
		c9.97-0.02,19.97-0.01,29.92,0.76c8.9,0.47,17.83,0.02,26.72,0.75c9.62,0.89,19.31,0.16,28.94,0.98
		c9.56,0.88,19.18,0.24,28.75,1.04c9.18,0.85,18.43,0.16,27.61,1.16c9.98,0.5,19.99,0.26,29.96,1.2
		c13.04-0.07,26.02,1.33,39.06,1.35c9.98,1.11,20.04,0.45,30.04,1.45c7.33,0.55,14.7,0.12,22.03,0.89
		c93.99,4.15,187.96,8.68,281.89,14.18c330.7,32.72,661.37,65.72,992.06,98.56c11.96,1.43,24.03,1.43,35.99,2.87
		c70.88,7.05,138.98,32.68,199.98,68.9c16.95,10.24,33.65,20.93,49.45,32.89h-410c-9.47-2.25-19.22-2.98-28.82-4.51
		c-191.71-26.76-384.08-48.63-576.66-68.05c-195.79-19.64-391.84-36.54-588.03-51.53C394.08,918.81,197.08,905.72,0,894.14V826z"/>
	<path fill="#E95F16" stroke="#E95F16" stroke-width="0.5" d="M1539.05,827.95c4.3,1.9,7.9,5.11,12.37,6.68
		c7.87,3.33,16.47,3.74,24.83,4.79c11.88,2.77,24.02,4.25,36.07,6.12c27.17,3.89,54.45,6.98,81.77,9.59
		c53.18,4.93,106.58,8.41,160.01,7.56c20.29-0.68,40.8-1.43,60.62-6.24c8.01,5.41,16.03,11.31,21.35,19.55
		c4.08,5.8,6.23,12.71,6.97,19.72c-9.96-2.36-20.21-2.6-30.36-3.28c-123.23-7.85-246.44-15.77-369.66-23.64
		c-8.81-0.56-17.57,0.73-26.34,1.18C1521.16,854.65,1528.31,839.88,1539.05,827.95z"/>
	<path fill="#F97716" stroke="#F97716" stroke-width="0.5" d="M365.58,830.08c27.81-0.2,55.62-0.01,83.42-0.09
		c21,0.53,42.01,0.15,63.01,0.27c48.99-0.02,97.98,0.4,146.97,0.23c30.66,0.36,61.32,0.25,91.99,0.26
		c25.01-0.15,50.01,0.44,75.03,0.25c27.32,0.05,54.66-0.17,81.98,0.26c30.33-0.01,60.66,0.01,90.99-0.01
		c14.03,0.23,28.09,0.5,42.11,0.01c7.93,0.77,15.9,0.14,23.85,0.63c74.35,2.74,148.7,5.64,223.05,8.37
		c8.88,1.96,17.29,5.72,26.15,7.88c26.52,8.93,53.29,17.16,79.91,25.82c4.98,1.39,9.78,3.58,14.89,4.46
		c35.92-2.72,71.84-5.53,107.75-8.44c8.77-0.45,17.53-1.74,26.34-1.18c123.22,7.87,246.43,15.79,369.66,23.64
		c10.15,0.68,20.4,0.92,30.36,3.28c50.11,10.77,98.14,30.28,142.62,55.59c49.51,28.25,94.36,64.51,132.68,106.69h-23.9
		c-15.8-11.96-32.5-22.65-49.45-32.89c-61-36.22-129.1-61.85-199.98-68.9c-11.96-1.44-24.03-1.44-35.99-2.87
		c-330.69-32.84-661.36-65.84-992.06-98.56c-93.93-5.5-187.9-10.03-281.89-14.18c-7.33-0.77-14.7-0.34-22.03-0.89
		c-10-1-20.06-0.34-30.04-1.45c-13.04-0.02-26.02-1.42-39.06-1.35c-9.97-0.94-19.98-0.7-29.96-1.2c-9.18-1-18.43-0.31-27.61-1.16
		c-9.57-0.8-19.19-0.16-28.75-1.04c-9.63-0.82-19.32-0.09-28.94-0.98c-8.89-0.73-17.82-0.28-26.72-0.75
		c-9.95-0.77-19.95-0.78-29.92-0.76C369.84,831.03,367.69,830.61,365.58,830.08z"/>
	<path fill="#FE9641" stroke="#FE9641" stroke-width="0.5" d="M0,894.14c197.08,11.58,394.08,24.67,590.93,39.77
		c196.19,14.99,392.24,31.89,588.03,51.53c192.58,19.42,384.95,41.29,576.66,68.05c9.6,1.53,19.35,2.26,28.82,4.51H0V894.14z"/>
</g>
</svg>
